# xmcd
#
# Track frame offsets: 
#        150
#        12015
#        28422
#        48210
#        65192
#        77992
#        97232
#        113652
#        131222
#        144732
#        161345
#        172517
#        193012
#        208780
#        235327
#
# Disc length: 3368 seconds
#
# Revision: 1
# Processed by: cddbd v1.5.2PL0 Copyright (c) Steve Scherf et al.
# Submitted via: ExactAudioCopy v0.99pb5
#
DISCID=d40d260f
DTITLE=Big Joe Duskin - noDon't Mess With The Boogie Man
DYEAR=1988
DGENRE=Blues
TTITLE0=Don't Mess With the Boogie Man
TTITLE1=Down On My Bended Knees
TTITLE2=Big Joe's Boogie Prayer
TTITLE3=Oodle Adle
TTITLE4=Mean And Evil
TTITLE5=Dirty Rat Swing
TTITLE6=Cuban Sugar Mill
TTITLE7=Call My Job
TTITLE8=Keep It To Yourself
TTITLE9=Low Down Dog
TTITLE10=C.C. Rider
TTITLE11=So Long
TTITLE12=Boogie Woogie On St. Louis Blues
TTITLE13=Ida B
TTITLE14=Yancey Special
EXTD=YEAR: 1988
EXTT0=
EXTT1=
EXTT2=
EXTT3=
EXTT4=
EXTT5=
EXTT6=
EXTT7=
EXTT8=
EXTT9=
EXTT10=
EXTT11=
EXTT12=
EXTT13=
EXTT14=
PLAYORDER=
